/* XPM */
static char *_adb5ff6c6234b2fe8569eb7e36b7acdC6F4dDNB4fR60JP8[] = {
/* columns rows colors chars-per-pixel */
"64 64 256 2 ",
"   c #030C03",
".  c #0B0D0B",
"X  c #090A06",
"o  c #021303",
"O  c #021B05",
"+  c #04140C",
"@  c #0C150B",
"#  c #031D0B",
"$  c #0A1C0C",
"%  c #0A1604",
"&  c #15180A",
"*  c #180B16",
"=  c #0C1C12",
"-  c #091715",
";  c #141413",
":  c #131C13",
">  c #1B1C14",
",  c #131C1B",
"<  c #1B1819",
"1  c #110D0E",
"2  c #251A18",
"3  c #261903",
"4  c #01230B",
"5  c #072609",
"6  c #14250C",
"7  c #042313",
"8  c #0C2313",
"9  c #0B2B1B",
"0  c #072818",
"q  c #142314",
"w  c #13241B",
"e  c #1C221B",
"r  c #122B1B",
"t  c #1A2A17",
"y  c #083418",
"u  c #18351A",
"i  c #23241B",
"p  c #262819",
"a  c #273518",
"s  c #35331D",
"d  c #191B24",
"f  c #0A1822",
"g  c #251C23",
"h  c #0C2A25",
"j  c #172925",
"k  c #093624",
"l  c #173727",
"z  c #1A3835",
"x  c #103234",
"c  c #282925",
"v  c #283827",
"b  c #363728",
"n  c #293A35",
"m  c #373834",
"M  c #352C28",
"N  c #423A2B",
"B  c #443931",
"V  c #41371E",
"C  c #184328",
"Z  c #174836",
"A  c #195736",
"S  c #0E4C2D",
"D  c #294429",
"F  c #37452A",
"G  c #254837",
"H  c #374736",
"J  c #27573A",
"K  c #32562E",
"L  c #2A633B",
"P  c #376236",
"I  c #1C4D1F",
"U  c #45482C",
"Y  c #474836",
"T  c #485738",
"R  c #555839",
"E  c #4E5134",
"W  c #4A653C",
"Q  c #566639",
"!  c #77793A",
"~  c #2E3842",
"^  c #1C5241",
"/  c #294941",
"(  c #3D4943",
")  c #295A45",
"_  c #335846",
"`  c #335C53",
"'  c #296548",
"]  c #356949",
"[  c #37754C",
"{  c #2A6755",
"}  c #386956",
"|  c #2C7855",
" . c #397856",
".. c #2B7249",
"X. c #3C7864",
"o. c #3C706C",
"O. c #1F6A49",
"+. c #4A4B44",
"@. c #495745",
"#. c #575945",
"$. c #575450",
"%. c #665D50",
"&. c #4A6548",
"*. c #596748",
"=. c #5B6A55",
"-. c #457759",
";. c #5B7554",
":. c #50724E",
">. c #666949",
",. c #65734C",
"<. c #69784A",
"1. c #666A54",
"2. c #687756",
"3. c #757A57",
"4. c #757450",
"5. c #4C7866",
"6. c #717966",
"7. c #877E72",
"8. c #3A835B",
"9. c #2F8353",
"0. c #398766",
"q. c #389873",
"w. c #45845A",
"e. c #4F935D",
"r. c #698558",
"t. c #768658",
"y. c #7A9459",
"u. c #6E894F",
"i. c #498866",
"p. c #548A69",
"a. c #489869",
"s. c #55986A",
"d. c #479875",
"f. c #589A77",
"g. c #528B76",
"h. c #798866",
"j. c #7A9665",
"k. c #6F8C6E",
"l. c #57A66A",
"z. c #58A679",
"x. c #5BB478",
"c. c #4BA672",
"v. c #66B67B",
"b. c #6DB173",
"n. c #6AA458",
"m. c #70C97B",
"M. c #69DC79",
"N. c #DBFD3B",
"B. c #FCF92C",
"V. c #EAFD39",
"C. c #F6FB38",
"Z. c #84885B",
"A. c #86965B",
"S. c #80834E",
"D. c #93AE5B",
"F. c #838D62",
"G. c #869867",
"H. c #8B9A75",
"J. c #95996C",
"K. c #8AA768",
"L. c #96A869",
"P. c #9CB56B",
"I. c #8AA675",
"U. c #97AB74",
"Y. c #99B677",
"T. c #8AB473",
"R. c #A5AE76",
"E. c #A6B977",
"W. c #AAB76D",
"Q. c #A4A95A",
"!. c #B4FB5A",
"~. c #97CA73",
"^. c #A6C46C",
"/. c #A8C778",
"(. c #B6C978",
"). c #BBD37C",
"_. c #B8D878",
"`. c #B0D471",
"'. c #9BF77C",
"]. c #90ED75",
"[. c #A9FC6A",
"{. c #B8FC68",
"}. c #B9E37A",
"|. c #A7F879",
" X c #B6F977",
".X c #B0E976",
"XX c #80EA54",
"oX c #C8FC48",
"OX c #D9FB4A",
"+X c #D6E85B",
"@X c #C9FC59",
"#X c #D8F959",
"$X c #CBE754",
"%X c #E8FB48",
"&X c #F9FA46",
"*X c #E6FC59",
"=X c #EDF159",
"-X c #C7DB69",
";X c #C6DA78",
":X c #D2D876",
">X c #C9E46A",
",X c #D8E868",
"<X c #C7FB68",
"1X c #D6FA68",
"2X c #C8E479",
"3X c #D3E675",
"4X c #C6FC74",
"5X c #D4FF73",
"6X c #E6F366",
"7X c #5AA884",
"8X c #5BBB84",
"9X c #4CB488",
"0X c #69B987",
"qX c #73BB85",
"wX c #69B48D",
"eX c #529281",
"rX c #5AC588",
"tX c #69C689",
"yX c #78C988",
"uX c #79D789",
"iX c #76C993",
"pX c #79D995",
"aX c #6BD592",
"sX c #7BE792",
"dX c #76D0A5",
"fX c #77EFAE",
"gX c #93B087",
"hX c #A7BA83",
"jX c #AAB185",
"kX c #86D88A",
"lX c #85DA96",
"zX c #8ECF8F",
"xX c #A9C785",
"cX c #B6CB87",
"vX c #B8D685",
"bX c #AFD68C",
"nX c #8AE78B",
"mX c #98EA8A",
"MX c #99F78A",
"NX c #88E997",
"BX c #95E894",
"VX c #8AF597",
"CX c #96F694",
"ZX c #8BF48A",
"AX c #A7F887",
"SX c #B4F887",
"DX c #A3FC95",
"FX c #AEE887",
"GX c #8ADAA3",
"HX c #96E9A7",
"JX c #8FF0AC",
"KX c #C5D985",
"LX c #CBD488",
"PX c #C4E486",
"IX c #D0E985",
"UX c #E0DC83",
/* pixels */
"1 X > i b *.6.H.jXcXKX_.$X$X,X:X;XKXE.U.r.P Z u m Y 4.J.KXIX3X3XvXvX6.2 J b.M.oXoXoX XCXfX9X[ 6 6 T <.S.R.W./.~.~.n.S.Q U V 2 X ",
"v , & o q H $.k.H.hX(.;X}.>X-X-X;XKXcXL.<.] D c i b R 7.E.KX2XIXPXxX*.6 -.mX[.N.%X%X4XCXfXc.J 5 a Q A.W.cXKX_._..X^.L.u.Q N 2 < ",
"z ) _ C 4 4 j @.=.F.E.;X-X;X2X;XvX).W.D.t.#.b i * 2 N R G./._.`.xXj.H u r.SXoXN.B.&X6XSXJXz.l & K y.W.LXLX:X2X2X2X`.U.t.#.v . j ",
"o.d.0...A S 4 9 H #.Z.L.W./._.bXvX/.W.A.4.U i X i i & p *.G.L.D.j.;.C D b.SXOXV.B.C.#XFXuXw.r b ,.K.(.:X3X3X3X2X;X).R.t.#.r = / ",
"q.wX8Xc.a.| S h j b R 4.A.L.Y.Y.zXT.G.u.E i , x _ ] Z y k G *.t.,.K 0 L ~.AX@X%XV.V.<X|.b.L @ Y y.~.;X:X,X,X,X,X;XLXR.t.T 7 k 5.",
"9XfXfXsXuXl.8._ h w s U >.r.k.j.k.r.<.Q a # G i.f.v.8X| x 0 a U F t 4 ] pXCX[.@XOX@X X~.e.l w *.j.`.2X3X6X6X,X$X;XLXU.2.v 4 Z g.",
"fXVXVXCXCXnXqXw.J l 8 t F @.:.;.;.;.Q a 5 y  .0XM.CXCXpXd.^ 7 % i > - { wXlXZX'.'.|.].b...5 n ;.K._.;X>X,X+X,X-X;XcXH.=.l 0 | wX",
"].DX|. X|.FXBXqXf.' y O t v H @.H F a 6 y ..8XNXSX X|.CXGX7XJ & & & + x  .f.pXVXsXuXx. .C 4 ( ;.K.bXKX>X+X+X,X>X).R.h.@.u y g.dX",
"[.{.<X#X<X{..XmXv.d.^ k 4 : b v m g 3 & I e.pXCX4X#X5XIXmXyX[ u & 3 2 @ h ) -.g.f.i.p.G 8 j H -.H.hXLX:X-X>X>X`./.L.2.H O J z.JX",
"!.@XOX%X%X#X XmXpX8X| A 9 % 2 2 g 2 3 & ' x.NX'.#XOX*X<XFXuXw.u & p H v l 9 8 9 H n / j 1 j H =.6.H.hX(.-X2X`./.T.j.*.v O J wXHX",
"oX%XC.C.C.=X{.'.nXrX0...l % > g d g 2 ; _ eXpXmX4X1X1X4XDXiX] O b *.r.r.,.T b c * X @ .   @ c H =.6.H.U.E.^.~.T.j.2.@.u 8 [ wXHX",
"N.V.C.B.B.V.@X|.VXrXq.| l X & M c n g 1 z { 7XHX.X X XAXzXf.z , R t.j.T.K.y.<.#.N c > ; % : d d H _ 1.r.y.j.j.j.r.=.H r y 5.qXHX",
"oXN.C.B.B.V.@X|.VXrXd.) 8 % i b m +.M 2 h x { 0XkXnXmXyXf.J j B h.hXbX_.FX/.U.t.R b $ o o # , + # 9 D H *.=.;.;.=.@.b % u w.tXJX",
"!.N.C.B.C.%X<X|.NX8X0.Z $ p H T Q Q @.@.H h 0 S | i.z.p.J # e 1.G.bXKX_..X`.hXj.1.Y 6 6 u G ` ^ C y 4 5 u G @.@.Y m p % l w.rXJX",
"!.@X%XC.C.%X{.|.VX7X} k - H #.,.A.A.A.y.,.@.v 8 0 h G l t 6 F r.I.bX;X:X;X).bXgX=.D % l ' -.g.eXs.-.J l 8 d c m m M p X C  .rXfX",
"!.!.#X*XOX#X{.MXpX0.^ 7 j #.h.K.W.W.^./.A.K.1.T v w @   % a P :.K.cX(.:XIX;XxXH.=.n o G p.f.iXGXyXb.z.-./ - f 2 g 2 2   D | 9XfX",
"].[.{.5X4X XAXkX8X| h 9 @.3.U./.`.3X;XKX).E.K.<.E s s & % u D *.7.R.hXcXcXcXR.4.@.4 l } b.GXBXMX|.'.nX0X0.' x . & 2 * 1 c ` q.dX",
"M.'.|.AX|.AXCXpXq.A 0 n 3.L.(._.2X3X-X:XKXvX/.A.>.N p & O 5 r D U >.k.I.H.G.F.>.U O Z i.gXBXAX[.{.{.AXnX0Xd._ r X & X   c _ 0.rX",
"M.M.MXMXMXmXuXx.[ y y @.H.jX;X3X1X#X+X3XLXLXhXH.4.M ; , r k h 4 5 u D &.=.=.*.E a O J f.lXDX X@XOX+X4XSXBXx. .C $ + @ @ , Z { q.",
"x.M.sXVXVXnXv.w.J # D ;.J.;X-X,X$XoX#X,XLXLXjXF.+.j j / 5.k.s.:.I I 4 , z m b c & = ] x.kXMX{.#XV.V.6X4XmXiXa.) 9 o 8 =   - ^ X.",
"0.7XrXrXrXrXf.] r % T y.P.;X,X,XN.OX#X,X:XcXH.=.y k ' z.yXBXnX].M.e.J h f d j 2 > w ) s.kX'.!.OXC.C.&X<X|.nXz.' k   6 t @   9 _ ",
") o.d.9Xc.d.-.D % i :.G.P.;X>X+X+X+X,X:XLXjX1.l y ..x.BXAX.X|.|.'.nXwX5.z j ; & & % h } b.mX{.@XN.C.%X@X|.BXv.' x + 6 s s 6 = r ",
"d ~ { X.0.} _ e 2 M ;.G.~.`.2X-X,X+X:XvXR.3.v 4 A v.mXSX5X#X%X#X[.NXGX7X` j   & e : f Z -.b.].[.N.oX@X<X|.NX0X} j ; p s N b > 1 ",
"* f x Z ^ Z n ; i B #.j.~./.2X;XLX(.cXY.3.U t I s.BXAX X*X&XB.%X XCXNXz.' u & p b n d d D &.m.].[.!.{.{.MXnXz.} < i N U E #.m n ",
"m 2 @ - h w @ ; g B #.4.G.E./.cXcXjXH.6.T 6 u &.v.BXAX4X#X%XC.%X XVXaXl.J 5 6 V E #.@.~ f h ..b.].MXFXFXCXpXf.G . M U R >.>.%.+.",
"%.Y p & @ @ X * c N #.%.6.G.j.I.J.7.=.+.c 8 G w.m.VXCX X<X#XOX@X|.NX0X[ k 5 V Q <.3.k.6.( z S S c.pXBXHXGXwXi.G & B R ,.t.t.6.=.",
"u.Q U s p ; . ; & i M B R *.*.=.1.@.H t $ q _ p.z.pXVXVXCXAXMX'.uXtXw.D 5 a Q y.L.P.Y.gX7X=.v 4 A i.gXiXwXd.] 9 t T ;.y.K.I.I.j.",
"y.u.>.E b e = = $ 8 & i s c v H v v j : $ r H -.p.wXtXpXpXuXm.v.c.0.G @ 6 U u.D.(.).vXvXhXU.,.K 7 S ` 5.g.5.Z O u *.r.T.hXhXxXgX",
"/.K.t.R U i $ 7 4 y y 5 5 O o + 8 $ % % % 8 u v G &.-.-.5.i.5.X.{ Z , 2 N %.G.E.`.2X2X2X2X).L.<.v 9 r / ` / j O D 2.b.gXcXLXvX/.",
"vXY.F.>.Y > # 9 A [  .[ [ _ G n w @   o @ $ # 8 @ , = w x z z z x - ; M E 4.I.xX}.2X<X+X>X>X(.Y.,.D : j h w $ t P r.I.xXLXLX2X`.",
"xXY.J.4.Y : r ' 8.z.x.rX0Xz.g.} H d 1 2 v v v v b m i t 8 o o + - - 2 b R 1.J.bXFX>X+X=X+X+X2X_.K.*.D : @ . & s R y.Y.cXUX:X>X$X",
"vXcXJ.2.M o C a.tXVXVXsXNXpX0X-.( g * M @.&.:.;.*.>.E Y F u t > , * 2 M R <.G.E.}.>X#X=X=X=X,X`.P.u.T u @ > 3 N R F.jXcXLX:X>X}.",
"cXR.J.1.8 S | m.ZXAX|.|.'.ZXm.p.@.@ c E >.t.G.G.G.t.<.*.H b c i * * 2 2 B >.t.D.`.>X$X6X6X6X>X-X).y.Q D q 6 2 b E 4.U._.KX2X2XPX",
"LXR.7.B - L c.mX X<XoX<X[.AXnXl.v & F >.A.L./.^.P.T.G.2.=.Y M 2 @ . 1 X < b Q y.^._.3X3X6X,X+X-X(.t.Q D t e > i R <.A.W.vXvX)._.",
"Y.y.>.i y  .kXFX+X&XC.%X4XAXyX8.y t *.j.E.(.vXvXvXxXI.t.,.Y i ; - w h h 7 9 D Q A.W.KX:X2X3X,X-X(.A.>.a - - . . i F <.I.E.cXKXLX",
"y.>.T 8 J l.FX{.=XC.C.&X5XAXyX{ 4 F r.U.bXvXvX;XvXcXK.t.=.H & @ l ) { ) Z k y u >.J.hXcXKXPX>X`.Q.4.Y e - j z z o 6 K 2.F.J.J.Q.",
"<.U a 0 O.x.VX[.*X&XC.%X<XmXv.) 4 P y.E.vXPXPXFXvXvXY.r.W v 6 j ) 0.q.d.0.O.x 8 v #.H.hXxX`.`.D.Z.R l , z o.5.X.A S 0 l @.3.4.4.",
"N p $ y 9.rXsXAX1X*X+X1X Xm.w.k u :.j.xXvXPXPXPX_.xXL.r.T q q J 8.z.rXrXrXc.} G + c #.F.K.K.D.y.<.b 0 z o.wXwX0Xx.8.S h h n B R ",
"2 g + Z | c.aXNXAX XAXAXnXe.J O D ,.G.vXvXvX;X).).W.K.,.D O l } c.pXpXNXNXzXqXp.v 9 l @.=.2.<.*.F 5 y  .dXHXBXMXZX~.l...k - @ > ",
"* < X h S ..c.0XlXzXyXyXc...D O F ,.F.cX(.vXKX).vXL.y.:.a O Z 5.v.VXCXAXAXDXFXb.p.l O l H T T b u 5 O.tXGXHX|. X[.|.nX0X0.Z w $ ",
"* g g , + # G _ -.-.i.0.| S , > Y *.t.R.hXKX(.E.E.J.<.&.r 5 { 7XNXZX X4X<X4X|.mXb.9.C O > b B c O I 9.yXMX X#XOXOX#X.XzXb...u O ",
"g B m Y H v c w q r h k h # 1 < m #.2.Z.J.L.E.R.J.Z.>.H 0 k } wXnX|.<X#XOX#X{.MXuXl.L 9 > g g * O J e.kXAX{.*XV.%X#X.XmXqX[ u 8 ",
"E >.2.h.Z.3.>.U b s t $ + - g g i Y T *.4.t.J.7.3.1.#.H 7 k X.qXCX X1X%XV.%X@X'.sXx. .C * * * * , J p.uXMX[.#X%XOX@X XBXx.^ h c ",
"! K.P.E.hXjXhXJ.S.>.Y b c d * * > t t F T Q >.>.>.$.+.v 4 C 0.wXCX X#XC.B.V.oX[.sXm.e.D ; 2 * d d n -.0XBXAX X<X<X XAXyX .h d +.",
"D._.KXIX2X;XvX`.P.y.*.E M ; 1 - 8 4 o 5 5 y D U +.+.B c o Z i.qXmX X#XC.B.V.@X XZXtXi.l % e c c * d z i.qXBXmXmXmXBXyXi.Z 0 ( 7.",
").2X3X3X,X>X>X`./.K.r.@.c . , G ) J Z Z u 5 q a m M m i   C  .b.BX X#XV.B.V.<X XVXm. .9 o a b m m d = 9 L s.v.tXiXwX .C 9 D 6.jX",
"2X3X,X+X=X=X1X}.bXT.6.@.w $ I :.-.d.a.i.' C 9   g < c q   C L l.kX X@XN.N.V.<X.XGXg.^ y r K W &.;.H v 6 6 C ) o.o.` l $ 6 W j.hX",
"_.:X,X6X+X$X>X}.xXI.-.n 9 u ] s.v.iXiXqX0Xs.[ l - 1 c >   u J s.kXmX{.@XoXoX XmXgX .x y D *.r.y.t.<.4.E c = + f x h @ > U <.K./.",
"(.;X:X3X2X}.}.vXK.G.#.t 8 ) c.aXVXZXZXCXBXtXa.' k , X 2 & # l i.0XNXDX|.|.|.DXlXz.u 5 s R y.K.Y.Y.Y.F.6.=.H , w   . * c Y *.u.b.",
"P.(.(.(.vXvX/.K.j.1.b 6 l [ 9XsXMX'.[.|.|.ZXaXd.) x . 2 & @ w _ d.tXVXCXZXVXNXx.[ y a E S.R.cXbXvXxXjXI.h.=.Y v < ; * * j H W u.",
"U <.t.I.L.G.y.,.*.F & 6 J a.aXJX|.4X<X+X{..XlX7XX.z   2 2 g f h } 7XlXNXVXVXuXw.C y F <.A./.vXvX_._.vXhXh.1.E 6 X w l l h # r K ",
"5 u b U R R *.T F 6 $ u ] x.fXVX X1X*X%X#X<XmXyX0.Z   p M ~ d f z  .b.yXm.v.s.L 0 t W j.Y.vXvX;X2X-XvXhXF.>.F 5 9 G } -.5.&.D a ",
"] Z # $ i p v p c = = v -.l.aXNX X@X%X&X%X1XDXlXq.Z # c Y #.~ g - G [ s.l.s.-.z $ m ;.K.xXFXvX}.;X;X-XJ.Z.T u y ..e.v.yXkXzXb.n.",
"dXf.) v i & ; < : + - z ] p.iXHXAX<X=X&X%X@XAXNX7X^ 4 b Y >.#.H j l C [ -. .H = j Y 2.T.~./.}.`._._.W.A.Q 6 y A e.kXSX|..X|.AXFX",
"JXfX7X:.v . ; < , - ; d n ` f.iXNXAX5X1X@X XDXJXd.Z 4 U Q t.<.>.H p O y G v j X c $.2.I./.vXPXvXvXhXJ.>.b 5 A a.nX|.1X#X*X6X@X!.",
"fXfX7X-.v & & < c g d , f n ` p.v.kXAX.X[.|.CXpXg.Z r T 4.A.A.u.,.H 6 8 h j d - m $.1.H.U.P./.P.U.r.>.Y 6 k 0.aXCX X#X&X&XC.OXoX",
"fXsXl.P 6 & e M ( ~ m m j + h G 8.8XkXmXCXCXNXtX5.l z %.y.P.^.D.A.,.F p %   - d n +.1.3.7.Z.D.A.2.=.+.c f ) 9XpXCX X#X&XC.V.oXoX",
"fXv.9.y 5 i U $.#.=.=.*.@.D u 0 k ..f.tXuXaXpXtX-.w n 6.Y.(.-X-XW.y.R b > . + - # v B %.>.>.Q T &.D c ; j } eXdXVXMX{.OXOX#X@X!.",
"rX8.l 6 p U *.3.h.j.G.y.u.<.T u q r C  .c.8X8Xi./ - ~ eXxXbX-X-X_.L.<.E i - + # 5 u p b N U U F v = @ ; n 5.f.wXNXVXAXAXAXSXAX].",
"-.A = i Y >.h.G.Y.E./.P.D.D.n.u.R s O u O.8.0.L v e $.gXbXPX:X,X;X^.Z.#.i - 7 y 5 4 o o % % 6 5 $ o @ ; z / ' w.c.x.M.uXuXkXv.l.",
"/ h , m $.h.H.~./.`._.2X_.`.P.L.F.R M a 7 y J Z 8 p ;.gXbXIX,X,X:X).K.,.q 8 C L L L J G G j r $ O   % @ : q 8 C I L [  .s.k.5.=.",
"- , c Y 1.h.U./.vX.X;X:X3X2X_./.U.G.>.U 6 o 8 8 = c 4.R._.3X,X6X3X;XK.W 4 l ' e.s.l.s.p.-.' G l 6 % & @ , w 6 t 5 4 7 h h z j x ",
"X @ c +.*.t.n.~..X`.-X:XUXIXLXKXbXhXA.4.T t : + a U S.W.-X1X+X*X>X:Xj.P 4 { s.yXlXGXdXwX7Xg.} G : < c m +.$.T Q T F M c j - - 7 ",
". > c F E u.n.~.`.}.3X:X:XUXUXKXbXbXU.F.>.U m p b V ! Q.>X$XOX6X>XKXu.K 7 i.gXHXJXJXJXfXdX7XX.l . g +.$.6.F.j.G.Z.3.%.$.m w O O "
};
